<svg xmlns="http://www.w3.org/2000/svg" xmlns:xlink="http://www.w3.org/1999/xlink" contentStyleType="text/css" data-diagram-type="CLASS" height="1153px" preserveAspectRatio="none" style="width:1064px;height:1153px;background:#FFFFFF;" version="1.1" viewBox="0 0 1064 1153" width="1064px" zoomAndPan="magnify"><defs/><g><!--class A--><g id="elem_A"><rect codeLine="5" fill="#F1F1F1" height="48" id="A" rx="2.5" ry="2.5" style="stroke:#181818;stroke-width:0.5;" width="180.4355" x="7" y="588.47"/><ellipse cx="22" cy="604.47" fill="#ADD1B2" rx="11" ry="11" style="stroke:#181818;stroke-width:1;"/><path d="M24.9688,610.1106 Q24.3906,610.4075 23.75,610.5481 Q23.1094,610.7044 22.4063,610.7044 Q19.9063,610.7044 18.5781,609.0638 Q17.2656,607.4075 17.2656,604.2825 Q17.2656,601.1575 18.5781,599.5013 Q19.9063,597.845 22.4063,597.845 Q23.1094,597.845 23.75,598.0013 Q24.4063,598.1575 24.9688,598.4544 L24.9688,601.1731 Q24.3438,600.595 23.75,600.3294 Q23.1563,600.0481 22.5313,600.0481 Q21.1875,600.0481 20.5,601.1263 Q19.8125,602.1888 19.8125,604.2825 Q19.8125,606.3763 20.5,607.4544 Q21.1875,608.5169 22.5313,608.5169 Q23.1563,608.5169 23.75,608.2513 Q24.3438,607.97 24.9688,607.3919 L24.9688,610.1106 Z " fill="#000000"/><text fill="#000000" font-family="sans-serif" font-size="14" lengthAdjust="spacing" textLength="148.4355" x="36" y="609.3167">&#1050;&#1086;&#1084;&#1087;&#1100;&#1102;&#1090;&#1077;&#1088;&#1085;&#1072;&#1103; &#1080;&#1075;&#1088;&#1072;</text><line style="stroke:#181818;stroke-width:0.5;" x1="8" x2="186.4355" y1="620.47" y2="620.47"/><line style="stroke:#181818;stroke-width:0.5;" x1="8" x2="186.4355" y1="628.47" y2="628.47"/></g><!--class B--><g id="elem_B"><rect codeLine="6" fill="#F1F1F1" height="48" id="B" rx="2.5" ry="2.5" style="stroke:#181818;stroke-width:0.5;" width="114.5439" x="444.5" y="335.47"/><ellipse cx="459.5" cy="351.47" fill="#ADD1B2" rx="11" ry="11" style="stroke:#181818;stroke-width:1;"/><path d="M462.4688,357.1106 Q461.8906,357.4075 461.25,357.5481 Q460.6094,357.7044 459.9063,357.7044 Q457.4063,357.7044 456.0781,356.0638 Q454.7656,354.4075 454.7656,351.2825 Q454.7656,348.1575 456.0781,346.5013 Q457.4063,344.845 459.9063,344.845 Q460.6094,344.845 461.25,345.0013 Q461.9063,345.1575 462.4688,345.4544 L462.4688,348.1731 Q461.8438,347.595 461.25,347.3294 Q460.6563,347.0481 460.0313,347.0481 Q458.6875,347.0481 458,348.1263 Q457.3125,349.1888 457.3125,351.2825 Q457.3125,353.3763 458,354.4544 Q458.6875,355.5169 460.0313,355.5169 Q460.6563,355.5169 461.25,355.2513 Q461.8438,354.97 462.4688,354.3919 L462.4688,357.1106 Z " fill="#000000"/><text fill="#000000" font-family="sans-serif" font-size="14" lengthAdjust="spacing" textLength="82.5439" x="473.5" y="356.3167">&#1046;&#1072;&#1085;&#1088; &#1080;&#1075;&#1088;&#1099;</text><line style="stroke:#181818;stroke-width:0.5;" x1="445.5" x2="558.0439" y1="367.47" y2="367.47"/><line style="stroke:#181818;stroke-width:0.5;" x1="445.5" x2="558.0439" y1="375.47" y2="375.47"/></g><!--class C--><g id="elem_C"><rect codeLine="7" fill="#F1F1F1" height="48" id="C" rx="2.5" ry="2.5" style="stroke:#181818;stroke-width:0.5;" width="125.1123" x="439.5" y="169.47"/><ellipse cx="454.5" cy="185.47" fill="#ADD1B2" rx="11" ry="11" style="stroke:#181818;stroke-width:1;"/><path d="M457.4688,191.1106 Q456.8906,191.4075 456.25,191.5481 Q455.6094,191.7044 454.9063,191.7044 Q452.4063,191.7044 451.0781,190.0638 Q449.7656,188.4075 449.7656,185.2825 Q449.7656,182.1575 451.0781,180.5013 Q452.4063,178.845 454.9063,178.845 Q455.6094,178.845 456.25,179.0013 Q456.9063,179.1575 457.4688,179.4544 L457.4688,182.1731 Q456.8438,181.595 456.25,181.3294 Q455.6563,181.0481 455.0313,181.0481 Q453.6875,181.0481 453,182.1263 Q452.3125,183.1888 452.3125,185.2825 Q452.3125,187.3763 453,188.4544 Q453.6875,189.5169 455.0313,189.5169 Q455.6563,189.5169 456.25,189.2513 Q456.8438,188.97 457.4688,188.3919 L457.4688,191.1106 Z " fill="#000000"/><text fill="#000000" font-family="sans-serif" font-size="14" lengthAdjust="spacing" textLength="93.1123" x="468.5" y="190.3167">&#1056;&#1072;&#1079;&#1088;&#1072;&#1073;&#1086;&#1090;&#1095;&#1080;&#1082;</text><line style="stroke:#181818;stroke-width:0.5;" x1="440.5" x2="563.6123" y1="201.47" y2="201.47"/><line style="stroke:#181818;stroke-width:0.5;" x1="440.5" x2="563.6123" y1="209.47" y2="209.47"/></g><!--class D--><g id="elem_D"><rect codeLine="8" fill="#F1F1F1" height="48" id="D" rx="2.5" ry="2.5" style="stroke:#181818;stroke-width:0.5;" width="102.1436" x="451" y="252.47"/><ellipse cx="466" cy="268.47" fill="#ADD1B2" rx="11" ry="11" style="stroke:#181818;stroke-width:1;"/><path d="M468.9688,274.1106 Q468.3906,274.4075 467.75,274.5481 Q467.1094,274.7044 466.4063,274.7044 Q463.9063,274.7044 462.5781,273.0638 Q461.2656,271.4075 461.2656,268.2825 Q461.2656,265.1575 462.5781,263.5013 Q463.9063,261.845 466.4063,261.845 Q467.1094,261.845 467.75,262.0013 Q468.4063,262.1575 468.9688,262.4544 L468.9688,265.1731 Q468.3438,264.595 467.75,264.3294 Q467.1563,264.0481 466.5313,264.0481 Q465.1875,264.0481 464.5,265.1263 Q463.8125,266.1888 463.8125,268.2825 Q463.8125,270.3763 464.5,271.4544 Q465.1875,272.5169 466.5313,272.5169 Q467.1563,272.5169 467.75,272.2513 Q468.3438,271.97 468.9688,271.3919 L468.9688,274.1106 Z " fill="#000000"/><text fill="#000000" font-family="sans-serif" font-size="14" lengthAdjust="spacing" textLength="70.1436" x="480" y="273.3167">&#1048;&#1079;&#1076;&#1072;&#1090;&#1077;&#1083;&#1100;</text><line style="stroke:#181818;stroke-width:0.5;" x1="452" x2="552.1436" y1="284.47" y2="284.47"/><line style="stroke:#181818;stroke-width:0.5;" x1="452" x2="552.1436" y1="292.47" y2="292.47"/></g><!--class E--><g id="elem_E"><rect codeLine="9" fill="#F1F1F1" height="48" id="E" rx="2.5" ry="2.5" style="stroke:#181818;stroke-width:0.5;" width="154.3086" x="425" y="671.47"/><ellipse cx="440" cy="687.47" fill="#ADD1B2" rx="11" ry="11" style="stroke:#181818;stroke-width:1;"/><path d="M442.9688,693.1106 Q442.3906,693.4075 441.75,693.5481 Q441.1094,693.7044 440.4063,693.7044 Q437.9063,693.7044 436.5781,692.0638 Q435.2656,690.4075 435.2656,687.2825 Q435.2656,684.1575 436.5781,682.5013 Q437.9063,680.845 440.4063,680.845 Q441.1094,680.845 441.75,681.0013 Q442.4063,681.1575 442.9688,681.4544 L442.9688,684.1731 Q442.3438,683.595 441.75,683.3294 Q441.1563,683.0481 440.5313,683.0481 Q439.1875,683.0481 438.5,684.1263 Q437.8125,685.1888 437.8125,687.2825 Q437.8125,689.3763 438.5,690.4544 Q439.1875,691.5169 440.5313,691.5169 Q441.1563,691.5169 441.75,691.2513 Q442.3438,690.97 442.9688,690.3919 L442.9688,693.1106 Z " fill="#000000"/><text fill="#000000" font-family="sans-serif" font-size="14" lengthAdjust="spacing" textLength="122.3086" x="454" y="692.3167">&#1048;&#1075;&#1088;&#1086;&#1074;&#1086;&#1081; &#1076;&#1074;&#1080;&#1078;&#1086;&#1082;</text><line style="stroke:#181818;stroke-width:0.5;" x1="426" x2="578.3086" y1="703.47" y2="703.47"/><line style="stroke:#181818;stroke-width:0.5;" x1="426" x2="578.3086" y1="711.47" y2="711.47"/></g><!--class F--><g id="elem_F"><rect codeLine="10" fill="#F1F1F1" height="48" id="F" rx="2.5" ry="2.5" style="stroke:#181818;stroke-width:0.5;" width="168.3086" x="418" y="418.47"/><ellipse cx="433" cy="434.47" fill="#ADD1B2" rx="11" ry="11" style="stroke:#181818;stroke-width:1;"/><path d="M435.9688,440.1106 Q435.3906,440.4075 434.75,440.5481 Q434.1094,440.7044 433.4063,440.7044 Q430.9063,440.7044 429.5781,439.0638 Q428.2656,437.4075 428.2656,434.2825 Q428.2656,431.1575 429.5781,429.5013 Q430.9063,427.845 433.4063,427.845 Q434.1094,427.845 434.75,428.0013 Q435.4063,428.1575 435.9688,428.4544 L435.9688,431.1731 Q435.3438,430.595 434.75,430.3294 Q434.1563,430.0481 433.5313,430.0481 Q432.1875,430.0481 431.5,431.1263 Q430.8125,432.1888 430.8125,434.2825 Q430.8125,436.3763 431.5,437.4544 Q432.1875,438.5169 433.5313,438.5169 Q434.1563,438.5169 434.75,438.2513 Q435.3438,437.97 435.9688,437.3919 L435.9688,440.1106 Z " fill="#000000"/><text fill="#000000" font-family="sans-serif" font-size="14" lengthAdjust="spacing" textLength="136.3086" x="447" y="439.3167">&#1048;&#1075;&#1088;&#1086;&#1074;&#1072;&#1103; &#1084;&#1077;&#1093;&#1072;&#1085;&#1080;&#1082;&#1072;</text><line style="stroke:#181818;stroke-width:0.5;" x1="419" x2="585.3086" y1="450.47" y2="450.47"/><line style="stroke:#181818;stroke-width:0.5;" x1="419" x2="585.3086" y1="458.47" y2="458.47"/></g><!--class G--><g id="elem_G"><rect codeLine="11" fill="#F1F1F1" height="48" id="G" rx="2.5" ry="2.5" style="stroke:#181818;stroke-width:0.5;" width="82.9414" x="888" y="205.47"/><ellipse cx="903" cy="221.47" fill="#ADD1B2" rx="11" ry="11" style="stroke:#181818;stroke-width:1;"/><path d="M905.9688,227.1106 Q905.3906,227.4075 904.75,227.5481 Q904.1094,227.7044 903.4063,227.7044 Q900.9063,227.7044 899.5781,226.0638 Q898.2656,224.4075 898.2656,221.2825 Q898.2656,218.1575 899.5781,216.5013 Q900.9063,214.845 903.4063,214.845 Q904.1094,214.845 904.75,215.0013 Q905.4063,215.1575 905.9688,215.4544 L905.9688,218.1731 Q905.3438,217.595 904.75,217.3294 Q904.1563,217.0481 903.5313,217.0481 Q902.1875,217.0481 901.5,218.1263 Q900.8125,219.1888 900.8125,221.2825 Q900.8125,223.3763 901.5,224.4544 Q902.1875,225.5169 903.5313,225.5169 Q904.1563,225.5169 904.75,225.2513 Q905.3438,224.97 905.9688,224.3919 L905.9688,227.1106 Z " fill="#000000"/><text fill="#000000" font-family="sans-serif" font-size="14" lengthAdjust="spacing" textLength="50.9414" x="917" y="226.3167">&#1057;&#1102;&#1078;&#1077;&#1090;</text><line style="stroke:#181818;stroke-width:0.5;" x1="889" x2="969.9414" y1="237.47" y2="237.47"/><line style="stroke:#181818;stroke-width:0.5;" x1="889" x2="969.9414" y1="245.47" y2="245.47"/></g><!--class H--><g id="elem_H"><rect codeLine="12" fill="#F1F1F1" height="48" id="H" rx="2.5" ry="2.5" style="stroke:#181818;stroke-width:0.5;" width="170.9063" x="416.5" y="588.47"/><ellipse cx="431.5" cy="604.47" fill="#ADD1B2" rx="11" ry="11" style="stroke:#181818;stroke-width:1;"/><path d="M434.4688,610.1106 Q433.8906,610.4075 433.25,610.5481 Q432.6094,610.7044 431.9063,610.7044 Q429.4063,610.7044 428.0781,609.0638 Q426.7656,607.4075 426.7656,604.2825 Q426.7656,601.1575 428.0781,599.5013 Q429.4063,597.845 431.9063,597.845 Q432.6094,597.845 433.25,598.0013 Q433.9063,598.1575 434.4688,598.4544 L434.4688,601.1731 Q433.8438,600.595 433.25,600.3294 Q432.6563,600.0481 432.0313,600.0481 Q430.6875,600.0481 430,601.1263 Q429.3125,602.1888 429.3125,604.2825 Q429.3125,606.3763 430,607.4544 Q430.6875,608.5169 432.0313,608.5169 Q432.6563,608.5169 433.25,608.2513 Q433.8438,607.97 434.4688,607.3919 L434.4688,610.1106 Z " fill="#000000"/><text fill="#000000" font-family="sans-serif" font-size="14" lengthAdjust="spacing" textLength="138.9063" x="445.5" y="609.3167">&#1048;&#1075;&#1088;&#1086;&#1074;&#1086;&#1081; &#1087;&#1077;&#1088;&#1089;&#1086;&#1085;&#1072;&#1078;</text><line style="stroke:#181818;stroke-width:0.5;" x1="417.5" x2="586.4063" y1="620.47" y2="620.47"/><line style="stroke:#181818;stroke-width:0.5;" x1="417.5" x2="586.4063" y1="628.47" y2="628.47"/></g><!--class I--><g id="elem_I"><rect codeLine="13" fill="#F1F1F1" height="48" id="I" rx="2.5" ry="2.5" style="stroke:#181818;stroke-width:0.5;" width="268.0176" x="368" y="928.47"/><ellipse cx="383" cy="944.47" fill="#ADD1B2" rx="11" ry="11" style="stroke:#181818;stroke-width:1;"/><path d="M385.9688,950.1106 Q385.3906,950.4075 384.75,950.5481 Q384.1094,950.7044 383.4063,950.7044 Q380.9063,950.7044 379.5781,949.0638 Q378.2656,947.4075 378.2656,944.2825 Q378.2656,941.1575 379.5781,939.5013 Q380.9063,937.845 383.4063,937.845 Q384.1094,937.845 384.75,938.0013 Q385.4063,938.1575 385.9688,938.4544 L385.9688,941.1731 Q385.3438,940.595 384.75,940.3294 Q384.1563,940.0481 383.5313,940.0481 Q382.1875,940.0481 381.5,941.1263 Q380.8125,942.1888 380.8125,944.2825 Q380.8125,946.3763 381.5,947.4544 Q382.1875,948.5169 383.5313,948.5169 Q384.1563,948.5169 384.75,948.2513 Q385.3438,947.97 385.9688,947.3919 L385.9688,950.1106 Z " fill="#000000"/><text fill="#000000" font-family="sans-serif" font-size="14" lengthAdjust="spacing" textLength="236.0176" x="397" y="949.3167">&#1052;&#1085;&#1086;&#1075;&#1086;&#1087;&#1086;&#1083;&#1100;&#1079;&#1086;&#1074;&#1072;&#1090;&#1077;&#1083;&#1100;&#1089;&#1082;&#1080;&#1081; &#1088;&#1077;&#1078;&#1080;&#1084;</text><line style="stroke:#181818;stroke-width:0.5;" x1="369" x2="635.0176" y1="960.47" y2="960.47"/><line style="stroke:#181818;stroke-width:0.5;" x1="369" x2="635.0176" y1="968.47" y2="968.47"/></g><!--class J--><g id="elem_J"><rect codeLine="14" fill="#F1F1F1" height="48" id="J" rx="2.5" ry="2.5" style="stroke:#181818;stroke-width:0.5;" width="185.0908" x="837" y="841.47"/><ellipse cx="852" cy="857.47" fill="#ADD1B2" rx="11" ry="11" style="stroke:#181818;stroke-width:1;"/><path d="M854.9688,863.1106 Q854.3906,863.4075 853.75,863.5481 Q853.1094,863.7044 852.4063,863.7044 Q849.9063,863.7044 848.5781,862.0638 Q847.2656,860.4075 847.2656,857.2825 Q847.2656,854.1575 848.5781,852.5013 Q849.9063,850.845 852.4063,850.845 Q853.1094,850.845 853.75,851.0013 Q854.4063,851.1575 854.9688,851.4544 L854.9688,854.1731 Q854.3438,853.595 853.75,853.3294 Q853.1563,853.0481 852.5313,853.0481 Q851.1875,853.0481 850.5,854.1263 Q849.8125,855.1888 849.8125,857.2825 Q849.8125,859.3763 850.5,860.4544 Q851.1875,861.5169 852.5313,861.5169 Q853.1563,861.5169 853.75,861.2513 Q854.3438,860.97 854.9688,860.3919 L854.9688,863.1106 Z " fill="#000000"/><text fill="#000000" font-family="sans-serif" font-size="14" lengthAdjust="spacing" textLength="153.0908" x="866" y="862.3167">&#1048;&#1075;&#1088;&#1086;&#1074;&#1086;&#1077; &#1089;&#1086;&#1086;&#1073;&#1097;&#1077;&#1089;&#1090;&#1074;&#1086;</text><line style="stroke:#181818;stroke-width:0.5;" x1="838" x2="1021.0908" y1="873.47" y2="873.47"/><line style="stroke:#181818;stroke-width:0.5;" x1="838" x2="1021.0908" y1="881.47" y2="881.47"/></g><!--class K--><g id="elem_K"><rect codeLine="15" fill="#F1F1F1" height="48" id="K" rx="2.5" ry="2.5" style="stroke:#181818;stroke-width:0.5;" width="119.6299" x="869.5" y="973.47"/><ellipse cx="884.5" cy="989.47" fill="#ADD1B2" rx="11" ry="11" style="stroke:#181818;stroke-width:1;"/><path d="M887.4688,995.1106 Q886.8906,995.4075 886.25,995.5481 Q885.6094,995.7044 884.9063,995.7044 Q882.4063,995.7044 881.0781,994.0638 Q879.7656,992.4075 879.7656,989.2825 Q879.7656,986.1575 881.0781,984.5013 Q882.4063,982.845 884.9063,982.845 Q885.6094,982.845 886.25,983.0013 Q886.9063,983.1575 887.4688,983.4544 L887.4688,986.1731 Q886.8438,985.595 886.25,985.3294 Q885.6563,985.0481 885.0313,985.0481 Q883.6875,985.0481 883,986.1263 Q882.3125,987.1888 882.3125,989.2825 Q882.3125,991.3763 883,992.4544 Q883.6875,993.5169 885.0313,993.5169 Q885.6563,993.5169 886.25,993.2513 Q886.8438,992.97 887.4688,992.3919 L887.4688,995.1106 Z " fill="#000000"/><text fill="#000000" font-family="sans-serif" font-size="14" lengthAdjust="spacing" textLength="87.6299" x="898.5" y="994.3167">&#1050;&#1080;&#1073;&#1077;&#1088;&#1089;&#1087;&#1086;&#1088;&#1090;</text><line style="stroke:#181818;stroke-width:0.5;" x1="870.5" x2="988.1299" y1="1005.47" y2="1005.47"/><line style="stroke:#181818;stroke-width:0.5;" x1="870.5" x2="988.1299" y1="1013.47" y2="1013.47"/></g><!--class L--><g id="elem_L"><rect codeLine="16" fill="#F1F1F1" height="48" id="L" rx="2.5" ry="2.5" style="stroke:#181818;stroke-width:0.5;" width="255.4736" x="802" y="709.47"/><ellipse cx="817" cy="725.47" fill="#ADD1B2" rx="11" ry="11" style="stroke:#181818;stroke-width:1;"/><path d="M819.9688,731.1106 Q819.3906,731.4075 818.75,731.5481 Q818.1094,731.7044 817.4063,731.7044 Q814.9063,731.7044 813.5781,730.0638 Q812.2656,728.4075 812.2656,725.2825 Q812.2656,722.1575 813.5781,720.5013 Q814.9063,718.845 817.4063,718.845 Q818.1094,718.845 818.75,719.0013 Q819.4063,719.1575 819.9688,719.4544 L819.9688,722.1731 Q819.3438,721.595 818.75,721.3294 Q818.1563,721.0481 817.5313,721.0481 Q816.1875,721.0481 815.5,722.1263 Q814.8125,723.1888 814.8125,725.2825 Q814.8125,727.3763 815.5,728.4544 Q816.1875,729.5169 817.5313,729.5169 Q818.1563,729.5169 818.75,729.2513 Q819.3438,728.97 819.9688,728.3919 L819.9688,731.1106 Z " fill="#000000"/><text fill="#000000" font-family="sans-serif" font-size="14" lengthAdjust="spacing" textLength="223.4736" x="831" y="730.3167">&#1044;&#1086;&#1087;&#1086;&#1083;&#1085;&#1077;&#1085;&#1085;&#1072;&#1103; &#1088;&#1077;&#1072;&#1083;&#1100;&#1085;&#1086;&#1089;&#1090;&#1100; (AR)</text><line style="stroke:#181818;stroke-width:0.5;" x1="803" x2="1056.4736" y1="741.47" y2="741.47"/><line style="stroke:#181818;stroke-width:0.5;" x1="803" x2="1056.4736" y1="749.47" y2="749.47"/></g><!--class M--><g id="elem_M"><rect codeLine="17" fill="#F1F1F1" height="48" id="M" rx="2.5" ry="2.5" style="stroke:#181818;stroke-width:0.5;" width="252.1924" x="803.5" y="566.47"/><ellipse cx="818.5" cy="582.47" fill="#ADD1B2" rx="11" ry="11" style="stroke:#181818;stroke-width:1;"/><path d="M821.4688,588.1106 Q820.8906,588.4075 820.25,588.5481 Q819.6094,588.7044 818.9063,588.7044 Q816.4063,588.7044 815.0781,587.0638 Q813.7656,585.4075 813.7656,582.2825 Q813.7656,579.1575 815.0781,577.5013 Q816.4063,575.845 818.9063,575.845 Q819.6094,575.845 820.25,576.0013 Q820.9063,576.1575 821.4688,576.4544 L821.4688,579.1731 Q820.8438,578.595 820.25,578.3294 Q819.6563,578.0481 819.0313,578.0481 Q817.6875,578.0481 817,579.1263 Q816.3125,580.1888 816.3125,582.2825 Q816.3125,584.3763 817,585.4544 Q817.6875,586.5169 819.0313,586.5169 Q819.6563,586.5169 820.25,586.2513 Q820.8438,585.97 821.4688,585.3919 L821.4688,588.1106 Z " fill="#000000"/><text fill="#000000" font-family="sans-serif" font-size="14" lengthAdjust="spacing" textLength="220.1924" x="832.5" y="587.3167">&#1042;&#1080;&#1088;&#1090;&#1091;&#1072;&#1083;&#1100;&#1085;&#1072;&#1103; &#1088;&#1077;&#1072;&#1083;&#1100;&#1085;&#1086;&#1089;&#1090;&#1100; (VR)</text><line style="stroke:#181818;stroke-width:0.5;" x1="804.5" x2="1054.6924" y1="598.47" y2="598.47"/><line style="stroke:#181818;stroke-width:0.5;" x1="804.5" x2="1054.6924" y1="606.47" y2="606.47"/></g><!--class N--><g id="elem_N"><rect codeLine="18" fill="#F1F1F1" height="48" id="N" rx="2.5" ry="2.5" style="stroke:#181818;stroke-width:0.5;" width="143.0635" x="858" y="418.47"/><ellipse cx="873" cy="434.47" fill="#ADD1B2" rx="11" ry="11" style="stroke:#181818;stroke-width:1;"/><path d="M875.9688,440.1106 Q875.3906,440.4075 874.75,440.5481 Q874.1094,440.7044 873.4063,440.7044 Q870.9063,440.7044 869.5781,439.0638 Q868.2656,437.4075 868.2656,434.2825 Q868.2656,431.1575 869.5781,429.5013 Q870.9063,427.845 873.4063,427.845 Q874.1094,427.845 874.75,428.0013 Q875.4063,428.1575 875.9688,428.4544 L875.9688,431.1731 Q875.3438,430.595 874.75,430.3294 Q874.1563,430.0481 873.5313,430.0481 Q872.1875,430.0481 871.5,431.1263 Q870.8125,432.1888 870.8125,434.2825 Q870.8125,436.3763 871.5,437.4544 Q872.1875,438.5169 873.5313,438.5169 Q874.1563,438.5169 874.75,438.2513 Q875.3438,437.97 875.9688,437.3919 L875.9688,440.1106 Z " fill="#000000"/><text fill="#000000" font-family="sans-serif" font-size="14" lengthAdjust="spacing" textLength="111.0635" x="887" y="439.3167">&#1043;&#1077;&#1081;&#1084;&#1080;&#1092;&#1080;&#1082;&#1072;&#1094;&#1080;&#1103;</text><line style="stroke:#181818;stroke-width:0.5;" x1="859" x2="1000.0635" y1="450.47" y2="450.47"/><line style="stroke:#181818;stroke-width:0.5;" x1="859" x2="1000.0635" y1="458.47" y2="458.47"/></g><!--class O--><g id="elem_O"><rect codeLine="19" fill="#F1F1F1" height="48" id="O" rx="2.5" ry="2.5" style="stroke:#181818;stroke-width:0.5;" width="180.3809" x="412" y="1098.47"/><ellipse cx="427" cy="1114.47" fill="#ADD1B2" rx="11" ry="11" style="stroke:#181818;stroke-width:1;"/><path d="M429.9688,1120.1106 Q429.3906,1120.4075 428.75,1120.5481 Q428.1094,1120.7044 427.4063,1120.7044 Q424.9063,1120.7044 423.5781,1119.0638 Q422.2656,1117.4075 422.2656,1114.2825 Q422.2656,1111.1575 423.5781,1109.5013 Q424.9063,1107.845 427.4063,1107.845 Q428.1094,1107.845 428.75,1108.0013 Q429.4063,1108.1575 429.9688,1108.4544 L429.9688,1111.1731 Q429.3438,1110.595 428.75,1110.3294 Q428.1563,1110.0481 427.5313,1110.0481 Q426.1875,1110.0481 425.5,1111.1263 Q424.8125,1112.1888 424.8125,1114.2825 Q424.8125,1116.3763 425.5,1117.4544 Q426.1875,1118.5169 427.5313,1118.5169 Q428.1563,1118.5169 428.75,1118.2513 Q429.3438,1117.97 429.9688,1117.3919 L429.9688,1120.1106 Z " fill="#000000"/><text fill="#000000" font-family="sans-serif" font-size="14" lengthAdjust="spacing" textLength="148.3809" x="441" y="1119.3167">&#1048;&#1075;&#1088;&#1086;&#1074;&#1072;&#1103; &#1087;&#1083;&#1072;&#1090;&#1092;&#1086;&#1088;&#1084;&#1072;</text><line style="stroke:#181818;stroke-width:0.5;" x1="413" x2="591.3809" y1="1130.47" y2="1130.47"/><line style="stroke:#181818;stroke-width:0.5;" x1="413" x2="591.3809" y1="1138.47" y2="1138.47"/></g><!--link A to B--><g id="link_A_B"><path codeLine="21" d="M106.81,588.38 C122.56,548.83 159.39,470.42 217,429.47 C285.19,381 377.2467,366.3675 438.4867,361.7875 " fill="transparent" id="A-to-B" style="stroke:#181818;stroke-width:1;"/><polygon fill="#181818" points="444.47,361.34,435.1967,358.0224,439.4839,361.7129,435.7934,366.0001,444.47,361.34" style="stroke:#181818;stroke-width:1;"/><text fill="#000000" font-family="sans-serif" font-size="13" lengthAdjust="spacing" textLength="106.6787" x="224.5" y="375.5369">&#1087;&#1088;&#1080;&#1085;&#1072;&#1076;&#1083;&#1077;&#1078;&#1080;&#1090; &#1082;</text></g><!--link A to C--><g id="link_A_C"><path codeLine="22" d="M99.07,588.17 C103.17,525.91 122.85,359.45 217,271.47 C277.71,214.74 369.7932,198.9977 433.3232,194.7777 " fill="transparent" id="A-to-C" style="stroke:#181818;stroke-width:1;"/><polygon fill="#181818" points="439.31,194.38,430.0647,190.9853,434.321,194.7114,430.5949,198.9677,439.31,194.38" style="stroke:#181818;stroke-width:1;"/><text fill="#000000" font-family="sans-serif" font-size="13" lengthAdjust="spacing" textLength="119.3359" x="218" y="207.5369">&#1088;&#1072;&#1079;&#1088;&#1072;&#1073;&#1072;&#1090;&#1099;&#1074;&#1072;&#1077;&#1090;&#1089;&#1103;</text></g><!--link A to D--><g id="link_A_D"><path codeLine="23" d="M102.09,588.47 C112.06,537.43 142.51,417.64 217,354.47 C283.98,297.67 382.9237,282.3848 444.7437,278.2048 " fill="transparent" id="A-to-D" style="stroke:#181818;stroke-width:1;"/><polygon fill="#181818" points="450.73,277.8,441.4807,274.4163,445.7414,278.1373,442.0203,282.398,450.73,277.8" style="stroke:#181818;stroke-width:1;"/><text fill="#000000" font-family="sans-serif" font-size="13" lengthAdjust="spacing" textLength="62.8545" x="246.5" y="292.5369">&#1080;&#1079;&#1076;&#1072;&#1105;&#1090;&#1089;&#1103;</text></g><!--link A to E--><g id="link_A_E"><path codeLine="24" d="M187.01,631.23 C197.12,633.34 207.28,635.46 217,637.47 C287.34,652.04 361.6601,667.2055 418.8601,678.8255 " fill="transparent" id="A-to-E" style="stroke:#181818;stroke-width:1;"/><polygon fill="#181818" points="424.74,680.02,416.7165,674.3083,419.8401,679.0246,415.1238,682.1482,424.74,680.02" style="stroke:#181818;stroke-width:1;"/><text fill="#000000" font-family="sans-serif" font-size="13" lengthAdjust="spacing" textLength="78.1968" x="238.5" y="633.5369">&#1080;&#1089;&#1087;&#1086;&#1083;&#1100;&#1079;&#1091;&#1077;&#1090;</text></g><!--link A to F--><g id="link_A_F"><path codeLine="25" d="M114.67,588.28 C135.28,560.39 173.06,515.45 217,492.47 C279.33,459.87 352.8043,448.4039 411.8143,444.3239 " fill="transparent" id="A-to-F" style="stroke:#181818;stroke-width:1;"/><polygon fill="#181818" points="417.8,443.91,408.5455,440.5403,412.8119,444.2549,409.0973,448.5213,417.8,443.91" style="stroke:#181818;stroke-width:1;"/><text fill="#000000" font-family="sans-serif" font-size="13" lengthAdjust="spacing" textLength="65.9839" x="245" y="450.5369">&#1074;&#1082;&#1083;&#1102;&#1095;&#1072;&#1077;&#1090;</text></g><!--link A to G--><g id="link_A_G"><path codeLine="26" d="M101.46,588.43 C113.65,507.05 157.13,243.72 217,186.47 C405.71,6 761.2611,149.6852 882.3411,206.6652 " fill="transparent" id="A-to-G" style="stroke:#181818;stroke-width:1;"/><polygon fill="#181818" points="887.77,209.22,881.3299,201.7685,883.2459,207.091,877.9234,209.007,887.77,209.22" style="stroke:#181818;stroke-width:1;"/><text fill="#000000" font-family="sans-serif" font-size="13" lengthAdjust="spacing" textLength="124.4268" x="440" y="95.5369">&#1084;&#1086;&#1078;&#1077;&#1090; &#1089;&#1086;&#1076;&#1077;&#1088;&#1078;&#1072;&#1090;&#1100;</text></g><!--link A to H--><g id="link_A_H"><path codeLine="27" d="M187.44,612.47 C255.73,612.47 343.2,612.47 410.29,612.47 " fill="transparent" id="A-to-H" style="stroke:#181818;stroke-width:1;"/><polygon fill="#181818" points="416.29,612.47,407.29,608.47,411.29,612.47,407.29,616.47,416.29,612.47" style="stroke:#181818;stroke-width:1;"/><text fill="#000000" font-family="sans-serif" font-size="13" lengthAdjust="spacing" textLength="41.8247" x="257" y="608.5369">&#1080;&#1084;&#1077;&#1077;&#1090;</text></g><!--link A to I--><g id="link_A_I"><path codeLine="28" d="M100.31,636.85 C107.05,693.19 131.91,832.81 217,901.47 C259.01,935.37 309.9912,949.1492 361.8812,954.4592 " fill="transparent" id="A-to-I" style="stroke:#181818;stroke-width:1;"/><polygon fill="#181818" points="367.85,955.07,359.304,950.1746,362.876,954.561,358.4896,958.133,367.85,955.07" style="stroke:#181818;stroke-width:1;"/><text fill="#000000" font-family="sans-serif" font-size="13" lengthAdjust="spacing" textLength="90.6636" x="232.5" y="897.5369">&#1084;&#1086;&#1078;&#1077;&#1090; &#1080;&#1084;&#1077;&#1090;&#1100;</text></g><!--link A to J--><g id="link_A_J"><path codeLine="29" d="M112.2,636.54 C131.89,667.88 170.38,722.34 217,753.47 C408.34,881.25 686.2016,883.5833 830.7316,874.5733 " fill="transparent" id="A-to-J" style="stroke:#181818;stroke-width:1;"/><polygon fill="#181818" points="836.72,874.2,827.4886,870.7677,831.7297,874.5111,827.9863,878.7522,836.72,874.2" style="stroke:#181818;stroke-width:1;"/><text fill="#000000" font-family="sans-serif" font-size="13" lengthAdjust="spacing" textLength="77.0923" x="463.5" y="823.5369">&#1092;&#1086;&#1088;&#1084;&#1080;&#1088;&#1091;&#1077;&#1090;</text></g><!--link A to K--><g id="link_A_K"><path codeLine="30" d="M99.24,636.87 C103.72,699.44 124.24,867.14 217,959.47 C393.55,1135.2 726.8526,1059.7026 863.5126,1018.7426 " fill="transparent" id="A-to-K" style="stroke:#181818;stroke-width:1;"/><polygon fill="#181818" points="869.26,1017.02,859.4905,1015.7723,864.4705,1018.4555,861.7873,1023.4355,869.26,1017.02" style="stroke:#181818;stroke-width:1;"/><text fill="#000000" font-family="sans-serif" font-size="13" lengthAdjust="spacing" textLength="135.7954" x="434.5" y="1045.5369">&#1084;&#1086;&#1078;&#1077;&#1090; &#1073;&#1099;&#1090;&#1100; &#1095;&#1072;&#1089;&#1090;&#1100;&#1102;</text></g><!--link A to L--><g id="link_A_L"><path codeLine="31" d="M131.23,636.66 C180.16,670.63 275.81,730.85 368,753.47 C513.63,789.21 680.9463,775.5995 795.8863,758.3695 " fill="transparent" id="A-to-L" style="stroke:#181818;stroke-width:1;"/><polygon fill="#181818" points="801.82,757.48,792.3265,754.8584,796.8752,758.2212,793.5124,762.77,801.82,757.48" style="stroke:#181818;stroke-width:1;"/><text fill="#000000" font-family="sans-serif" font-size="13" lengthAdjust="spacing" textLength="142.9238" x="431" y="749.5369">&#1084;&#1086;&#1078;&#1077;&#1090; &#1080;&#1089;&#1087;&#1086;&#1083;&#1100;&#1079;&#1086;&#1074;&#1072;&#1090;&#1100;</text></g><!--link A to M--><g id="link_A_M"><path codeLine="32" d="M187.18,592.78 C197.21,590.85 207.31,589.03 217,587.47 C401.01,557.85 449.73,564.11 636,570.47 C690.94,572.35 745.5964,575.7572 797.3564,579.5872 " fill="transparent" id="A-to-M" style="stroke:#181818;stroke-width:1;"/><polygon fill="#181818" points="803.34,580.03,794.6597,575.3768,798.3536,579.661,794.0694,583.355,803.34,580.03" style="stroke:#181818;stroke-width:1;"/><text fill="#000000" font-family="sans-serif" font-size="13" lengthAdjust="spacing" textLength="142.9238" x="431" y="561.5369">&#1084;&#1086;&#1078;&#1077;&#1090; &#1080;&#1089;&#1087;&#1086;&#1083;&#1100;&#1079;&#1086;&#1074;&#1072;&#1090;&#1100;</text></g><!--link A to O--><g id="link_A_O"><path codeLine="33" d="M100.85,636.66 C111.44,722.51 151.41,1010.69 217,1071.47 C268.81,1119.48 343.7,1130.0964 405.92,1129.9264 " fill="transparent" id="A-to-O" style="stroke:#181818;stroke-width:1;"/><polygon fill="#181818" points="411.92,1129.91,402.9091,1125.9346,406.92,1129.9237,402.931,1133.9346,411.92,1129.91" style="stroke:#181818;stroke-width:1;"/><text fill="#000000" font-family="sans-serif" font-size="13" lengthAdjust="spacing" textLength="105.1743" x="225" y="1067.5369">&#1079;&#1072;&#1087;&#1091;&#1089;&#1082;&#1072;&#1077;&#1090;&#1089;&#1103; &#1085;&#1072;</text></g><!--link F to N--><g id="link_F_N"><path codeLine="35" d="M586.05,442.47 C665.26,442.47 777.25,442.47 852,442.47 " fill="transparent" id="F-to-N" style="stroke:#181818;stroke-width:1;"/><polygon fill="#181818" points="858,442.47,849,438.47,853,442.47,849,446.47,858,442.47" style="stroke:#181818;stroke-width:1;"/><text fill="#000000" font-family="sans-serif" font-size="13" lengthAdjust="spacing" textLength="104.9585" x="667" y="438.5369">&#1080;&#1089;&#1087;&#1086;&#1083;&#1100;&#1079;&#1091;&#1077;&#1090;&#1089;&#1103; &#1074;</text></g><!--link B to G--><g id="link_B_G"><path codeLine="37" d="M559.5,342.21 C646.54,315.62 805.5818,267.023 881.9818,243.683 " fill="transparent" id="B-to-G" style="stroke:#181818;stroke-width:1;"/><polygon fill="#181818" points="887.72,241.93,877.944,240.734,882.9382,243.3908,880.2814,248.385,887.72,241.93" style="stroke:#181818;stroke-width:1;"/><text fill="#000000" font-family="sans-serif" font-size="13" lengthAdjust="spacing" textLength="68.4087" x="685" y="275.5369">&#1074;&#1083;&#1080;&#1103;&#1077;&#1090; &#1085;&#1072;</text></g><!--link I to J--><g id="link_I_J"><path codeLine="39" d="M635.24,928.45 C678.86,920.25 727.57,910.79 772,901.47 C793.01,897.06 809.6907,893.3863 830.9207,888.5363 " fill="transparent" id="I-to-J" style="stroke:#181818;stroke-width:1;"/><polygon fill="#181818" points="836.77,887.2,827.1052,885.3049,831.8956,888.3136,828.8869,893.1039,836.77,887.2" style="stroke:#181818;stroke-width:1;"/><text fill="#000000" font-family="sans-serif" font-size="13" lengthAdjust="spacing" textLength="77.0923" x="680.5" y="897.5369">&#1092;&#1086;&#1088;&#1084;&#1080;&#1088;&#1091;&#1077;&#1090;</text></g><!--link I to K--><g id="link_I_K"><path codeLine="40" d="M636.17,966.55 C714.43,974.83 803.4933,984.2487 863.5133,990.5987 " fill="transparent" id="I-to-K" style="stroke:#181818;stroke-width:1;"/><polygon fill="#181818" points="869.48,991.23,860.9508,986.3053,864.5078,990.7039,860.1091,994.2609,869.48,991.23" style="stroke:#181818;stroke-width:1;"/><text fill="#000000" font-family="sans-serif" font-size="13" lengthAdjust="spacing" textLength="85.3188" x="676.5" y="967.5369">&#1087;&#1086;&#1087;&#1091;&#1083;&#1103;&#1088;&#1077;&#1085; &#1074;</text></g><!--link E to L--><g id="link_E_L"><path codeLine="42" d="M579.07,702.26 C640.86,707.78 723.3538,715.1464 795.8138,721.6164 " fill="transparent" id="E-to-L" style="stroke:#181818;stroke-width:1;"/><polygon fill="#181818" points="801.79,722.15,793.1814,717.3654,796.8098,721.7053,792.4699,725.3337,801.79,722.15" style="stroke:#181818;stroke-width:1;"/><text fill="#000000" font-family="sans-serif" font-size="13" lengthAdjust="spacing" textLength="102.0386" x="668" y="707.5369">&#1087;&#1086;&#1076;&#1076;&#1077;&#1088;&#1078;&#1080;&#1074;&#1072;&#1077;&#1090;</text></g><!--link E to M--><g id="link_E_M"><path codeLine="43" d="M579.07,676.7 C649.47,659.33 748.6647,634.8473 825.1847,615.9673 " fill="transparent" id="E-to-M" style="stroke:#181818;stroke-width:1;"/><polygon fill="#181818" points="831.01,614.53,821.3138,612.8024,826.1556,615.7277,823.2302,620.5695,831.01,614.53" style="stroke:#181818;stroke-width:1;"/><text fill="#000000" font-family="sans-serif" font-size="13" lengthAdjust="spacing" textLength="102.0386" x="668" y="627.5369">&#1087;&#1086;&#1076;&#1076;&#1077;&#1088;&#1078;&#1080;&#1074;&#1072;&#1077;&#1090;</text></g><!--SRC=[bLDDRzf04BtxLwnoQW-HsciFbI21X2GaKW-zMmbDhQPG0JyW8MsZ2WJgXwegwg7z1-1WC0Jilp3pZ_fsThquKOZKmmhiUM_UspVZizgRjcetL3CuVTjM9q6pTjmE6dNFQxqBwX_yflzUrHidjQhVF0tgwlapppi-yrijjK7NbD22KkvndpiKyJajQSW3HJ7Tu66ueVoMAZZuJnhIaizjcRjIBhho7vIdcaOZIhZ3Ly3D1RFbCBzeIcDeG8rkkIVLxLnLooOKuimKW25QJF1WsfGU08hT1Rn_qkQqehLTTk2_t4UJY3loVcUTMge3u0iy80IQ27ZNWN_ZRK8tE2aEhECYHjzU1Smvv6SAFIFenRIG5fK7zI8bIWcD-0jqBz05huMmbnjFZ2YDAwZYrrnXto5-P7xWBi8nunC7Gp49qxevzzIJmgkdmZvmx6yKwvvywS3hsQyjk-hOtm6R8VgOFvhO-JF-3mHrk6vIAQmYCb1m7P3Dh8uyhw0sDr-gede132gn364Cj6J97KLpYza2HhOispNThwi5z8pXTs21sxfPR1VkwvrIIKecLZDCX02sBPTrESITRl5XN9d6jhIZImkmPAFC5CVowKp4IC_YTequDZD7hjmbctgEjAUlbaMZPvCtjN-FFEAkZ4ORD5FYleKUtDV9tpHRMwTQ_I_qaKPFaKdAbxBpBdQbP-PvPO4ThadO04FFAwxY335cR8vHbnwLn-AehEBGpU430WDPswMqBgr2I6KysO3YR4iifFe8v1y0]--></g></svg>